<svg width="949" height="176" viewBox="0 0 949 176" fill="none" xmlns="http://www.w3.org/2000/svg">
<g clip-path="url(#clip0_6_189)">
<path d="M77.631 145.766L48.911 93.6681H40.8458V145.766H7.20797V7.7558H63.6644C74.549 7.7558 83.7945 9.65639 91.4009 13.4571C99.138 17.2578 104.908 22.5005 108.712 29.1847C112.514 35.7378 114.416 43.0777 114.416 51.2035C114.416 60.3781 111.793 68.5693 106.548 75.7779C101.433 82.9866 93.8268 88.0981 83.7291 91.1124L115.596 145.766H77.631ZM40.8458 69.88H61.6973C67.8608 69.88 72.4506 68.3727 75.4671 65.3583C78.6145 62.344 80.1882 58.0843 80.1882 52.5796C80.1882 47.3369 78.6145 43.2084 75.4671 40.1941C72.4506 37.1798 67.8608 35.6724 61.6973 35.6724H40.8458V69.88ZM239.002 89.1464C239.002 92.292 238.806 95.5687 238.412 98.9762H162.285C162.809 105.792 164.973 111.034 168.776 114.704C172.71 118.243 177.497 120.012 183.136 120.012C191.529 120.012 197.365 116.473 200.644 109.396H236.445C234.609 116.604 231.265 123.092 226.413 128.859C221.692 134.625 215.725 139.147 208.512 142.424C201.299 145.701 193.234 147.339 184.316 147.339C173.563 147.339 163.99 145.045 155.596 140.458C147.203 135.871 140.646 129.317 135.925 120.798C131.204 112.279 128.844 102.318 128.844 90.9158C128.844 79.5132 131.139 69.5522 135.728 61.0332C140.45 52.5143 147.007 45.9607 155.4 41.3737C163.793 36.7866 173.432 34.4928 184.316 34.4928C194.939 34.4928 204.381 36.7207 212.643 41.1771C220.905 45.6334 227.331 51.9898 231.921 60.2469C236.642 68.5039 239.002 78.1371 239.002 89.1464ZM204.578 80.2996C204.578 74.533 202.611 69.9454 198.676 66.5379C194.742 63.1304 189.824 61.4264 183.923 61.4264C178.284 61.4264 173.497 63.0646 169.563 66.3413C165.76 69.6181 163.4 74.2705 162.481 80.2996H204.578ZM360.219 89.1464C360.219 92.292 360.022 95.5687 359.628 98.9762H283.501C284.025 105.792 286.189 111.034 289.992 114.704C293.926 118.243 298.714 120.012 304.352 120.012C312.746 120.012 318.581 116.473 321.86 109.396H357.661C355.825 116.604 352.481 123.092 347.629 128.859C342.908 134.625 336.941 139.147 329.728 142.424C322.516 145.701 314.45 147.339 305.533 147.339C294.779 147.339 285.206 145.045 276.813 140.458C268.42 135.871 261.862 129.317 257.141 120.798C252.42 112.279 250.06 102.318 250.06 90.9158C250.06 79.5132 252.355 69.5522 256.945 61.0332C261.666 52.5143 268.223 45.9607 276.616 41.3737C285.009 36.7866 294.648 34.4928 305.533 34.4928C316.155 34.4928 325.597 36.7207 333.859 41.1771C342.121 45.6334 348.547 51.9898 353.137 60.2469C357.858 68.5039 360.219 78.1371 360.219 89.1464ZM325.794 80.2996C325.794 74.533 323.827 69.9454 319.893 66.5379C315.958 63.1304 311.04 61.4264 305.139 61.4264C299.5 61.4264 294.713 63.0646 290.779 66.3413C286.976 69.6181 284.616 74.2705 283.697 80.2996H325.794ZM411.602 0.285156V145.766H377.964V0.285156H411.602Z" fill="#621C97"/>
<path d="M83.1247 145.766L54.4047 93.6681H46.3395V145.766H12.7017V7.7558H69.1581C80.0432 7.7558 89.2886 9.65639 96.8945 13.4571C104.632 17.2578 110.402 22.5005 114.205 29.1847C118.009 35.7378 119.91 43.0777 119.91 51.2035C119.91 60.3781 117.287 68.5693 112.041 75.7779C106.927 82.9866 99.321 88.0981 89.2227 91.1124L121.09 145.766H83.1247ZM46.3395 69.88H67.191C73.3549 69.88 77.9447 68.3727 80.9608 65.3583C84.1082 62.344 85.6819 58.0843 85.6819 52.5796C85.6819 47.3369 84.1082 43.2084 80.9608 40.1941C77.9447 37.1798 73.3549 35.6724 67.191 35.6724H46.3395V69.88ZM244.497 89.1464C244.497 92.292 244.3 95.5687 243.907 98.9762H167.779C168.304 105.792 170.467 111.034 174.27 114.704C178.205 118.243 182.991 120.012 188.63 120.012C197.024 120.012 202.859 116.473 206.138 109.396H241.939C240.104 116.604 236.759 123.092 231.907 128.859C227.186 134.625 221.219 139.147 214.006 142.424C206.793 145.701 198.728 147.339 189.811 147.339C179.057 147.339 169.484 145.045 161.091 140.458C152.697 135.871 146.14 129.317 141.419 120.798C136.698 112.279 134.338 102.318 134.338 90.9158C134.338 79.5132 136.633 69.5522 141.223 61.0332C145.944 52.5143 152.501 45.9607 160.894 41.3737C169.287 36.7866 178.926 34.4928 189.811 34.4928C200.433 34.4928 209.875 36.7207 218.137 41.1771C226.399 45.6334 232.825 51.9898 237.415 60.2469C242.136 68.5039 244.497 78.1371 244.497 89.1464ZM210.072 80.2996C210.072 74.533 208.105 69.9454 204.171 66.5379C200.236 63.1304 195.319 61.4264 189.417 61.4264C183.778 61.4264 178.991 63.0646 175.057 66.3413C171.254 69.6181 168.894 74.2705 167.976 80.2996H210.072ZM365.713 89.1464C365.713 92.292 365.516 95.5687 365.123 98.9762H288.995C289.52 105.792 291.683 111.034 295.486 114.704C299.421 118.243 304.208 120.012 309.846 120.012C318.24 120.012 324.076 116.473 327.354 109.396H363.155C361.32 116.604 357.976 123.092 353.123 128.859C348.402 134.625 342.435 139.147 335.222 142.424C328.01 145.701 319.945 147.339 311.027 147.339C300.273 147.339 290.7 145.045 282.307 140.458C273.914 135.871 267.357 129.317 262.635 120.798C257.914 112.279 255.554 102.318 255.554 90.9158C255.554 79.5132 257.849 69.5522 262.439 61.0332C267.16 52.5143 273.717 45.9607 282.11 41.3737C290.503 36.7866 300.142 34.4928 311.027 34.4928C321.649 34.4928 331.091 36.7207 339.353 41.1771C347.615 45.6334 354.041 51.9898 358.631 60.2469C363.352 68.5039 365.713 78.1371 365.713 89.1464ZM331.288 80.2996C331.288 74.533 329.321 69.9454 325.387 66.5379C321.452 63.1304 316.535 61.4264 310.633 61.4264C304.995 61.4264 300.208 63.0646 296.273 66.3413C292.47 69.6181 290.11 74.2705 289.192 80.2996H331.288ZM417.096 0.285156V145.766H383.459V0.285156H417.096ZM597.86 7.7558V145.766H564.222V62.9992L533.338 145.766H506.192L475.111 62.8026V145.766H441.474V7.7558H481.209L519.962 103.301L558.321 7.7558H597.86ZM615.362 90.7192C615.362 79.4479 617.457 69.5522 621.657 61.0332C625.985 52.5143 631.817 45.9607 639.164 41.3737C646.507 36.7866 654.705 34.4928 663.754 34.4928C671.489 34.4928 678.241 36.0656 684.015 39.2111C689.916 42.3566 694.441 46.4852 697.588 51.5966V36.0656H731.226V145.766H697.588V130.235C694.308 135.346 689.72 139.475 683.818 142.62C678.045 145.766 671.293 147.339 663.557 147.339C654.636 147.339 646.507 145.045 639.164 140.458C631.817 135.74 625.985 129.121 621.657 120.602C617.457 111.952 615.362 101.991 615.362 90.7192ZM697.588 90.9158C697.588 82.5275 695.228 75.9091 690.506 71.0596C685.913 66.2101 680.277 63.7856 673.589 63.7856C666.901 63.7856 661.196 66.2101 656.475 71.0596C651.882 75.7779 649.59 82.3309 649.59 90.7192C649.59 99.1074 651.882 105.792 656.475 110.772C661.196 115.621 666.901 118.046 673.589 118.046C680.277 118.046 685.913 115.621 690.506 110.772C695.228 105.922 697.588 99.304 697.588 90.9158ZM816.737 117.26V145.766H799.623C787.427 145.766 777.92 142.817 771.099 136.919C764.278 130.89 760.87 121.126 760.87 107.626V63.9822H747.494V36.0656H760.87V9.32856H794.508V36.0656H816.54V63.9822H794.508V108.02C794.508 111.296 795.295 113.656 796.869 115.097C798.442 116.539 801.064 117.26 804.737 117.26H816.737ZM938.944 89.1464C938.944 92.292 938.748 95.5687 938.354 98.9762H862.226C862.753 105.792 864.916 111.034 868.718 114.704C872.652 118.243 877.437 120.012 883.078 120.012C891.473 120.012 897.305 116.473 900.585 109.396H936.387C934.553 116.604 931.208 123.092 926.355 128.859C921.634 134.625 915.668 139.147 908.454 142.424C901.239 145.701 893.174 147.339 884.258 147.339C873.503 147.339 863.933 145.045 855.538 140.458C847.144 135.871 840.588 129.317 835.867 120.798C831.146 112.279 828.785 102.318 828.785 90.9158C828.785 79.5132 831.082 69.5522 835.67 61.0332C840.391 52.5143 846.947 45.9607 855.342 41.3737C863.736 36.7866 873.375 34.4928 884.258 34.4928C894.881 34.4928 904.323 36.7207 912.585 41.1771C920.847 45.6334 927.274 51.9898 931.863 60.2469C936.584 68.5039 938.944 78.1371 938.944 89.1464ZM904.52 80.2996C904.52 74.533 902.552 69.9454 898.618 66.5379C894.684 63.1304 889.766 61.4264 883.865 61.4264C878.224 61.4264 873.439 63.0646 869.505 66.3413C865.703 69.6181 863.343 74.2705 862.423 80.2996H904.52Z" fill="#071108"/>
<path d="M0.505486 165.425H944.452V175.255H0.505486V165.425Z" fill="#071108"/>
<path d="M607.233 7.75586V145.766H573.595V62.9993L542.712 145.766H515.565L484.485 62.8027V145.766H450.847V7.75586H490.583L529.335 103.301L567.694 7.75586H607.233ZM624.736 90.7193C624.736 79.4479 626.836 69.5523 631.03 61.0333C635.358 52.5143 641.196 45.9608 648.538 41.3737C655.88 36.7867 664.078 34.4929 673.127 34.4929C680.863 34.4929 687.62 36.0656 693.388 39.2112C699.29 42.3567 703.814 46.4852 706.961 51.5967V36.0656H740.599V145.766H706.961V130.235C703.681 135.346 699.093 139.475 693.192 142.621C687.423 145.766 680.666 147.339 672.93 147.339C664.014 147.339 655.88 145.045 648.538 140.458C641.196 135.74 635.358 129.121 631.03 120.602C626.836 111.952 624.736 101.991 624.736 90.7193ZM706.961 90.9159C706.961 82.5276 704.601 75.9092 699.88 71.0597C695.291 66.2102 689.651 63.7856 682.963 63.7856C676.274 63.7856 670.57 66.2102 665.848 71.0597C661.26 75.778 658.964 82.331 658.964 90.7193C658.964 99.1075 661.26 105.792 665.848 110.772C670.57 115.622 676.274 118.046 682.963 118.046C689.651 118.046 695.291 115.622 699.88 110.772C704.601 105.922 706.961 99.3041 706.961 90.9159ZM826.11 117.26V145.766H808.996C796.8 145.766 787.294 142.817 780.473 136.919C773.657 130.89 770.244 121.126 770.244 107.626V63.9822H756.867V36.0656H770.244V9.32862H803.882V36.0656H825.913V63.9822H803.882V108.02C803.882 111.296 804.668 113.656 806.242 115.097C807.816 116.539 810.442 117.26 814.111 117.26H826.11ZM948.318 89.1465C948.318 92.292 948.121 95.5688 947.727 98.9763H871.6C872.126 105.792 874.29 111.034 878.091 114.704C882.026 118.243 886.815 120.012 892.451 120.012C900.846 120.012 906.683 116.473 909.959 109.396H945.76C943.926 116.605 940.582 123.092 935.728 128.859C931.007 134.625 925.042 139.147 917.827 142.424C910.618 145.701 902.552 147.339 893.632 147.339C882.881 147.339 873.306 145.045 864.912 140.458C856.522 135.871 849.961 129.317 845.24 120.798C840.519 112.279 838.159 102.318 838.159 90.9159C838.159 79.5133 840.455 69.5523 845.044 61.0333C849.765 52.5143 856.325 45.9608 864.715 41.3737C873.11 36.7867 882.748 34.4929 893.632 34.4929C904.254 34.4929 913.696 36.7208 921.958 41.1771C930.22 45.6335 936.648 51.9899 941.236 60.2469C945.957 68.5039 948.318 78.1371 948.318 89.1465ZM913.893 80.2997C913.893 74.533 911.926 69.9455 907.992 66.538C904.057 63.1305 899.139 61.4265 893.238 61.4265C887.602 61.4265 882.812 63.0646 878.878 66.3414C875.077 69.6182 872.716 74.2706 871.796 80.2997H913.893Z" fill="#621C97"/>
<path d="M189.726 86.787C195.158 86.787 199.562 82.3861 199.562 76.9572C199.562 71.5284 195.158 67.1274 189.726 67.1274C184.294 67.1274 179.89 71.5284 179.89 76.9572C179.89 82.3861 184.294 86.787 189.726 86.787Z" fill="#071108"/>
<path d="M310.212 86.787C315.644 86.787 320.048 82.3861 320.048 76.9572C320.048 71.5284 315.644 67.1274 310.212 67.1274C304.78 67.1274 300.377 71.5284 300.377 76.9572C300.377 82.3861 304.78 86.787 310.212 86.787Z" fill="#071108"/>
<path d="M143.727 44.2907L133.891 34.4609" stroke="#071108" stroke-width="5"/>
<path d="M154.034 36.5315L148.155 23.9326" stroke="#071108" stroke-width="5"/>
<path d="M359.631 44.291L369.466 34.4612" stroke="#071108" stroke-width="5"/>
<path d="M349.324 36.5312L355.203 23.9323" stroke="#071108" stroke-width="5"/>
</g>
<defs>
<clipPath id="clip0_6_189">
<rect width="949" height="176" fill="white"/>
</clipPath>
</defs>
</svg>
